<?xml version="1.0" encoding="utf-8"?>
<!-- Generator: Adobe Illustrator 18.1.1, SVG Export Plug-In . SVG Version: 6.00 Build 0)  -->
<svg version="1.1" id="Layer_1" xmlns="http://www.w3.org/2000/svg" xmlns:xlink="http://www.w3.org/1999/xlink" x="0px" y="0px"
	 viewBox="0 0 225 180" enable-background="new 0 0 225 180" xml:space="preserve">
<circle fill="#FFFFFF" cx="112.5" cy="59.3" r="58.1"/>
<g>
	<g>
		<circle fill="#FFFFFF" cx="112.5" cy="59.3" r="46.9"/>
		<path fill="#DB1A8E" d="M112.5,107.6c-26.7,0-48.4-21.7-48.4-48.4c0-26.7,21.7-48.4,48.4-48.4s48.4,21.7,48.4,48.4
			C160.9,85.9,139.2,107.6,112.5,107.6z M112.5,13.9c-25,0-45.4,20.3-45.4,45.4c0,25,20.3,45.4,45.4,45.4s45.4-20.3,45.4-45.4
			C157.9,34.3,137.5,13.9,112.5,13.9z"/>
	</g>
	<path fill="#DB1A8E" d="M101.6,68.2l5.5-11.2l5.5-10.9l5.4,10.9l5.5,11.2L142.7,29c-7.8-7.5-18.4-12.2-30.2-12.2
		c-11.7,0-22.4,4.7-30.2,12.2L101.6,68.2z"/>
	<path fill="#DB1A8E" d="M149.3,37.4l-26,52.7L112.5,68l-10.9,22.1l-26-52.7c-3.9,6.4-6.2,13.9-6.2,21.9c0,23.5,19.3,42.5,43,42.5
		s43-19,43-42.5C155.5,51.3,153.3,43.8,149.3,37.4z"/>
</g>
<g>
	<path fill="#DB198D" d="M25.9,124.3c0,0.4-0.1,1-0.3,1.8s-0.4,1.7-0.7,2.7s-0.6,2.1-0.9,3.3s-0.7,2.4-0.9,3.6s-0.5,2.4-0.7,3.6
		s-0.3,2.3-0.3,3.3c0,0.8,0.1,1.6,0.2,2.3s0.3,1.3,0.5,1.9s0.5,1,0.9,1.3s0.8,0.5,1.2,0.5s0.9-0.1,1.4-0.4s0.9-0.7,1.3-1.2
		s0.8-1.1,1.2-1.8s0.8-1.4,1.1-2.2s0.7-1.6,1-2.5s0.6-1.8,0.9-2.6c1-3.1,1.9-6.7,2.6-10.7c0.1-0.6,0.3-1.2,0.5-1.6s0.4-0.8,0.7-1
		s0.6-0.4,0.9-0.5s0.8-0.2,1.2-0.2c0.4,0,0.8,0,1.1,0.1s0.5,0.2,0.7,0.3s0.3,0.3,0.4,0.5s0.1,0.4,0.1,0.7c0,0.1,0,0.4-0.1,1
		s-0.2,1.4-0.4,2.3s-0.3,2-0.5,3.2s-0.3,2.4-0.5,3.7s-0.3,2.5-0.4,3.7s-0.1,2.4-0.1,3.4c0,1.1,0,2,0.1,2.9s0.2,1.6,0.4,2.2
		s0.4,1.1,0.7,1.4s0.7,0.5,1.1,0.5c0.8,0,1.4-0.3,2-0.9s1.2-1.4,1.7-2.3s1-2.1,1.4-3.4s0.8-2.6,1.1-4s0.6-2.8,0.8-4.3
		s0.4-2.8,0.6-4.1s0.3-2.4,0.4-3.4s0.1-1.8,0.2-2.4c0-0.6,0.1-1.1,0.3-1.4s0.4-0.6,0.7-0.8s0.6-0.3,1-0.4s0.7-0.1,1.1-0.1
		c0.3,0,0.6,0,0.8,0.1s0.4,0.2,0.6,0.3s0.3,0.4,0.4,0.6s0.1,0.6,0.1,1c0,1.1-0.1,2.4-0.2,3.7s-0.3,2.6-0.5,4s-0.5,2.6-0.7,3.9
		s-0.5,2.4-0.7,3.4s-0.4,1.9-0.5,2.5s-0.2,1.1-0.2,1.3c0,0.5,0.1,0.8,0.2,1.2s0.3,0.6,0.5,0.8s0.5,0.4,0.8,0.5s0.6,0.1,1,0.1
		s0.7-0.1,1-0.2s0.7-0.4,1-0.7s0.6-0.6,0.9-1s0.5-0.8,0.7-1.3L57,146c-0.9,1-1.8,1.8-2.7,2.4s-1.8,0.9-2.6,0.9
		c-0.4,0-0.8-0.1-1.1-0.2s-0.6-0.3-0.9-0.6s-0.5-0.6-0.7-1s-0.3-0.9-0.4-1.5c-0.6,1.1-1.2,2.1-1.9,2.9s-1.4,1.6-2.1,2.2
		s-1.5,1.1-2.4,1.4s-1.7,0.5-2.6,0.5c-1.1,0-2.1-0.3-2.8-0.9s-1.4-1.4-1.9-2.4s-0.8-2.2-1.1-3.6s-0.3-2.8-0.3-4.3
		c0-0.6,0-1.1,0.1-1.6s0.1-0.9,0.1-1.3c-0.4,2.7-1,4.9-1.6,6.7S30.8,149,30,150s-1.8,1.9-3,2.3s-2.3,0.7-3.7,0.7
		c-0.8,0-1.5-0.3-2.2-0.8s-1.3-1.3-1.9-2.3s-1-2.3-1.3-3.8s-0.5-3.3-0.5-5.3c0-1.2,0.1-2.5,0.2-3.8s0.3-2.6,0.6-3.9s0.6-2.6,1-3.9
		s0.8-2.5,1.3-3.8c0.3-0.7,0.6-1.2,0.9-1.6s0.6-0.7,0.9-0.8s0.6-0.3,0.9-0.3s0.6-0.1,0.9-0.1c0.3,0,0.5,0,0.7,0.1s0.4,0.1,0.5,0.2
		s0.3,0.3,0.3,0.5S25.9,123.9,25.9,124.3z"/>
	<path fill="#DB198D" d="M66,138.2c0.3,0.7,0.6,1.4,0.8,2.2s0.3,1.5,0.3,2.2s-0.1,1.4-0.2,2.1s-0.4,1.4-0.7,2s-0.6,1.3-1.1,1.8
		s-0.9,1.1-1.4,1.5s-1.1,0.8-1.7,1s-1.3,0.4-2,0.4c-1,0-1.9-0.2-2.6-0.7s-1.3-1-1.8-1.8s-0.8-1.5-1-2.5s-0.3-1.8-0.3-2.8
		c0-1.3,0.2-2.5,0.6-3.6s0.9-2.1,1.7-2.9s1.6-1.5,2.6-2s2.2-0.7,3.5-0.7c1.1,0,2.2,0.2,3.1,0.5s1.9,0.8,2.7,1.4s1.6,1.2,2.4,2
		s1.4,1.5,2,2.3l-0.3,2.5c-0.3-0.4-0.7-0.9-1.3-1.4s-1.1-1-1.7-1.4s-1.2-0.9-1.8-1.3s-1.1-0.8-1.5-1L66,138.2z M60.5,148
		c0.4,0,0.8-0.2,1.2-0.6s0.7-0.9,1-1.5s0.5-1.3,0.7-2s0.3-1.5,0.3-2.1c0-0.5,0-1-0.1-1.5s-0.2-0.9-0.4-1.2s-0.4-0.6-0.6-0.8
		s-0.6-0.3-0.9-0.3c-0.5,0-0.9,0.2-1.4,0.6s-0.8,0.9-1.1,1.6s-0.6,1.3-0.8,2.1s-0.3,1.5-0.3,2.2c0,0.5,0,1,0.1,1.4s0.2,0.8,0.4,1.1
		s0.5,0.6,0.8,0.8S60.1,148,60.5,148z"/>
	<path fill="#DB198D" d="M70.5,147.7c0-0.8,0-1.7,0.1-2.7s0.2-2,0.4-3.1s0.3-2.1,0.5-3s0.3-1.8,0.5-2.5c0.1-0.5,0.4-1,0.7-1.4
		s0.9-0.5,1.5-0.5s1.1,0.2,1.3,0.6s0.4,0.9,0.4,1.5c0,0.2,0,0.4-0.1,0.7s-0.1,0.6-0.1,1s-0.1,0.7-0.2,1.1s-0.1,0.7-0.2,1.1
		s-0.1,0.6-0.1,0.8s-0.1,0.4-0.1,0.5h0.4c0.1-0.1,0.2-0.3,0.3-0.6s0.3-0.6,0.5-1s0.4-0.8,0.6-1.2s0.4-0.8,0.6-1.2s0.4-0.7,0.5-1
		s0.3-0.5,0.4-0.7c0.4-0.6,0.8-1.1,1.3-1.3s1-0.4,1.6-0.4s1.1,0.2,1.4,0.7s0.5,1.2,0.5,2c0,0.1,0,0.3-0.1,0.7s-0.1,0.7-0.2,1.1
		s-0.2,0.9-0.3,1.4s-0.2,1-0.3,1.5s-0.1,1-0.2,1.6s-0.1,1-0.1,1.4c0,0.7,0.1,1.3,0.3,1.8s0.5,0.7,0.9,0.7c0.2,0,0.4-0.1,0.6-0.2
		s0.5-0.2,0.7-0.4s0.5-0.4,0.8-0.6s0.5-0.5,0.8-0.7c0.6-0.6,1.3-1.2,2-1.9l0.3,3.9l-0.9,0.7c-0.5,0.4-1,0.7-1.5,1.1s-1,0.7-1.6,1
		s-1.1,0.5-1.7,0.7s-1.2,0.3-1.8,0.3s-1.2-0.5-1.6-1.4s-0.7-2.3-0.7-4.1c0-0.7,0-1.5,0.1-2.3s0.2-1.7,0.4-2.6h-0.3l-4.6,9.1
		c-0.2,0.5-0.5,0.8-0.8,1s-0.6,0.3-1,0.3c-0.5,0-0.9-0.1-1.2-0.3s-0.5-0.5-0.7-0.8s-0.3-0.7-0.3-1.2S70.5,148.2,70.5,147.7z"/>
	<path fill="#DB198D" d="M106.6,147.9c-0.8,0.6-1.7,1.2-2.5,1.7c-0.3,0.2-0.7,0.4-1.1,0.6s-0.7,0.4-1.1,0.5s-0.7,0.3-1.1,0.4
		s-0.7,0.1-1,0.1c-0.2,0-0.4,0-0.7-0.1s-0.7-0.2-1.1-0.4s-0.8-0.5-1.1-0.9s-0.7-1-1-1.6c-0.4,0.4-0.9,0.8-1.4,1.2s-1,0.7-1.5,1
		s-1,0.5-1.6,0.7s-1.1,0.3-1.6,0.3c-0.8,0-1.4-0.2-2-0.5s-1-0.8-1.4-1.3s-0.6-1.2-0.8-1.9s-0.3-1.4-0.3-2.1c0-0.8,0.1-1.5,0.3-2.3
		s0.5-1.5,0.8-2.2s0.8-1.4,1.3-2s1.1-1.2,1.8-1.7s1.4-0.9,2.2-1.2s1.6-0.5,2.5-0.6c0-1.5,0.2-3,0.4-4.4s0.5-2.9,0.9-4.2
		s0.8-2.5,1.4-3.7s1.1-2.1,1.7-2.9s1.3-1.5,2-1.9s1.4-0.7,2.2-0.7c0.6,0,1,0.1,1.4,0.4s0.7,0.7,0.9,1.1s0.4,1,0.5,1.7
		s0.2,1.3,0.2,1.9c0,0.4,0,0.8-0.1,1.3c-0.2,1.7-0.4,3.2-0.8,4.7s-0.9,2.9-1.4,4.3s-1.1,2.8-1.8,4.1s-1.3,2.8-1.9,4.3
		c-0.1,0.2-0.1,0.4-0.2,0.6s-0.1,0.5-0.2,0.8s-0.1,0.6-0.1,0.8s-0.1,0.6-0.1,0.8c0,0.3,0,0.7,0.1,1s0.1,0.6,0.2,0.8s0.2,0.4,0.4,0.6
		s0.4,0.2,0.6,0.2c0.2,0,0.5,0,0.7-0.1s0.5-0.2,0.8-0.4s0.6-0.3,0.9-0.5s0.6-0.4,0.9-0.6c0.6-0.5,1.3-1,2-1.6L106.6,147.9z
		 M94.5,138.1c-0.8,0.4-1.5,0.9-2.1,1.5s-1.1,1.3-1.5,2s-0.7,1.4-0.9,2.2s-0.3,1.4-0.3,2c0,0.2,0,0.5,0.1,0.7s0.1,0.4,0.3,0.6
		s0.3,0.3,0.6,0.5s0.6,0.2,1,0.2c0.2,0,0.4-0.1,0.6-0.2s0.4-0.2,0.6-0.4s0.4-0.4,0.5-0.6s0.3-0.4,0.5-0.7c0.3-0.5,0.6-1.1,0.9-1.8
		c0-0.2-0.1-0.4-0.1-0.8s0-0.8-0.1-1.2s0-0.9,0-1.4s0-0.9,0-1.3s0-0.7,0-0.9S94.5,138.1,94.5,138.1z M102.8,125.4
		c0.1-0.8,0.1-1.5,0.1-2c0-0.6-0.1-1.1-0.2-1.3s-0.3-0.4-0.5-0.4c-0.4,0-0.7,0.2-1,0.7s-0.6,1.1-0.8,1.8s-0.4,1.6-0.6,2.4
		s-0.3,1.8-0.4,2.6s-0.2,1.6-0.3,2.3s-0.1,1.1-0.1,1.4c0,0.6-0.1,1.1-0.1,1.7s0,1-0.1,1.5s0,0.8,0,1.2s0,0.6,0,0.8v0.2
		c0.7-1.5,1.3-3,1.8-4.6c0.2-0.6,0.5-1.3,0.7-2s0.5-1.4,0.7-2.1s0.4-1.4,0.5-2.1S102.7,126,102.8,125.4z"/>
	<path fill="#DB198D" d="M111.6,151.4c-1.1,0-2.1-0.2-2.9-0.6s-1.5-0.9-2.1-1.6s-1-1.5-1.2-2.3s-0.4-1.8-0.4-2.8
		c0-0.7,0.1-1.4,0.2-2.1s0.3-1.5,0.6-2.2s0.6-1.4,1-2s0.9-1.2,1.4-1.7s1.1-0.9,1.8-1.2s1.4-0.4,2.2-0.4c0.7,0,1.3,0.1,1.8,0.3
		s1.1,0.5,1.5,0.9s0.7,0.8,1,1.4s0.4,1.1,0.4,1.8c0,0.7-0.2,1.5-0.5,2.2s-0.9,1.4-1.5,2.1s-1.4,1.2-2.3,1.7
		c-0.9,0.5-1.8,0.9-2.8,1.2c0.2,0.3,0.3,0.6,0.5,0.8s0.3,0.4,0.5,0.5s0.4,0.2,0.6,0.2s0.4,0.1,0.6,0.1c0.7,0,1.4-0.1,2.2-0.4
		s1.5-0.6,2.3-1.1s1.4-0.9,2.1-1.4s1.2-1,1.7-1.4l2.3,2.4c-1,1.1-2.1,2-3.3,2.8c-0.5,0.4-1,0.7-1.6,1s-1.2,0.6-1.8,0.9
		s-1.3,0.5-2,0.6C113,151.3,112.3,151.4,111.6,151.4z M109.2,143.1c0.4,0,0.9-0.1,1.4-0.3s1-0.5,1.4-0.8s0.8-0.7,1.1-1.1
		c0.3-0.4,0.4-0.8,0.4-1.2c0-0.5-0.1-1-0.3-1.3s-0.4-0.5-0.7-0.5c-0.5,0-0.9,0.1-1.3,0.3s-0.7,0.4-0.9,0.7s-0.4,0.6-0.6,1
		s-0.3,0.8-0.3,1.2s-0.1,0.8-0.1,1.1S109.2,142.9,109.2,143.1z"/>
	<path fill="#DB198D" d="M119.5,147.7c0-0.5,0-1.1,0.1-1.8s0.1-1.4,0.2-2.2s0.2-1.5,0.4-2.3s0.3-1.5,0.4-2.3s0.3-1.4,0.5-2
		s0.3-1.1,0.5-1.5c0.1-0.3,0.2-0.5,0.3-0.6s0.2-0.3,0.3-0.4s0.3-0.1,0.5-0.2s0.4,0,0.7,0c0.3,0,0.5,0,0.7,0s0.3,0.1,0.4,0.2
		s0.1,0.3,0.1,0.5s0,0.5,0,0.9c0,0.4,0,1,0,1.6s0,1.2,0,1.8h0.2c0.2-0.5,0.5-1,0.8-1.6s0.6-1.1,1-1.6s0.8-0.9,1.3-1.3
		s1.1-0.5,1.7-0.5c0.2,0,0.4,0,0.7,0.1s0.4,0.2,0.6,0.3s0.3,0.3,0.4,0.5s0.1,0.4,0.1,0.7c0,0.2,0,0.5-0.1,0.8s-0.1,0.7-0.2,1.1
		s-0.1,0.8-0.2,1.1s-0.1,0.7-0.1,0.9c0,0.4,0,0.8,0.1,1.1s0.2,0.5,0.3,0.7s0.3,0.3,0.5,0.4s0.3,0.1,0.5,0.1c0.5,0,1.1-0.1,1.6-0.4
		s1.1-0.5,1.5-0.8c0.6-0.3,1.1-0.7,1.6-1.2l-0.3,4.1c-0.3,0.2-0.7,0.4-1,0.7s-0.8,0.5-1.2,0.7s-0.9,0.4-1.4,0.5s-1,0.2-1.5,0.2
		c-0.9,0-1.6-0.2-2.1-0.5s-1-0.8-1.3-1.4s-0.6-1.2-0.7-2s-0.3-1.5-0.4-2.2h-0.3l-3.1,8.8c-0.2,0.5-0.3,0.8-0.5,1.1s-0.3,0.5-0.4,0.7
		s-0.3,0.3-0.5,0.4s-0.4,0.1-0.6,0.1c-0.5,0-0.9-0.1-1.2-0.3s-0.5-0.5-0.7-0.8s-0.3-0.7-0.3-1.2S119.5,148.2,119.5,147.7z"/>
	<path fill="#DB198D" d="M150,139c0.2,0,0.3,0,0.5,0.1s0.4,0.1,0.5,0.2s0.3,0.2,0.4,0.4s0.2,0.4,0.2,0.7c0,0.2,0,0.5-0.1,0.7
		s-0.2,0.5-0.3,0.7s-0.4,0.4-0.7,0.5s-0.7,0.2-1.2,0.2h-7.3c-0.4,0-0.7-0.1-0.9-0.2s-0.4-0.3-0.5-0.5s-0.2-0.4-0.2-0.6
		s-0.1-0.4-0.1-0.6c0-0.2,0-0.3,0.1-0.5s0.1-0.3,0.2-0.5s0.3-0.3,0.5-0.4s0.5-0.1,0.9-0.1H150z"/>
	<path fill="#DB198D" d="M156.6,128c-0.8,1.4-1.4,2.4-2,3.1s-1.1,1-1.5,1c-0.5,0-0.8-0.6-0.8-1.8c0-1.1,0.2-2.2,0.5-3.1
		s0.8-1.7,1.4-2.4s1.3-1.3,2.1-1.8s1.7-0.9,2.7-1.2s2-0.6,3.1-0.7s2.2-0.2,3.3-0.2c1.3,0,2.7,0.1,4,0.3s2.6,0.5,3.8,0.8
		s2.4,0.8,3.4,1.3s2,1,2.8,1.7s1.4,1.3,1.9,2s0.7,1.4,0.7,2.2c0,0.9-0.2,1.8-0.6,2.7s-1,1.7-1.8,2.4s-1.9,1.3-3.2,1.7
		s-2.9,0.7-4.7,0.7c1.2,0,2.2,0.2,3,0.6s1.6,0.9,2.2,1.5s1,1.4,1.3,2.2s0.4,1.7,0.4,2.6c0,0.7-0.1,1.5-0.3,2.3s-0.5,1.5-0.9,2.2
		s-0.9,1.4-1.5,2s-1.3,1.2-2.1,1.6s-1.7,0.8-2.7,1.1s-2.1,0.4-3.3,0.4c-0.8,0-1.6,0-2.4-0.1s-1.7-0.2-2.6-0.4s-1.7-0.4-2.5-0.6
		s-1.6-0.5-2.4-0.8c-0.3-0.1-0.6-0.2-0.9-0.4s-0.4-0.5-0.4-0.9c0-1.9,0-3.9,0.1-6s0.3-4,0.6-6s0.7-3.8,1.3-5.6s1.3-3.3,2.3-4.7
		c0.8-0.6,1.6-0.9,2.3-0.9c0.9,0,1.6,0.5,2.1,1.4c-0.5,0.7-1,1.5-1.4,2.4s-0.7,1.8-1,2.8s-0.5,2-0.6,3s-0.3,2-0.4,3
		c-0.1,0.6-0.1,1.1-0.1,1.8s-0.1,1.3-0.1,1.9s-0.1,1.3-0.1,1.9s0,1.3,0,1.8c0,0.1,0,0.2,0,0.4s0,0.3,0,0.5s0.1,0.3,0.1,0.5
		s0.1,0.3,0.2,0.3c0.7,0.2,1.5,0.4,2.3,0.6s1.6,0.2,2.5,0.2c1,0,2-0.1,2.9-0.4s1.8-0.6,2.5-1.1s1.3-1.2,1.7-2s0.7-1.8,0.7-3
		c0-0.7-0.1-1.2-0.4-1.7s-0.6-0.8-1-1.1s-0.9-0.5-1.4-0.7s-1.1-0.3-1.6-0.5s-1.1-0.3-1.6-0.4s-1-0.3-1.4-0.5s-0.8-0.5-1-0.8
		s-0.4-0.7-0.4-1.3c0-0.2,0-0.5,0-0.6s0.1-0.3,0.2-0.4s0.3-0.2,0.5-0.3s0.5-0.1,0.9-0.1c0.5,0,1,0,1.4,0.1s0.9,0.1,1.3,0.1
		c1.1,0,2.1-0.1,3-0.4s1.7-0.6,2.3-1.1s1.1-1,1.5-1.6s0.5-1.3,0.5-2c0-0.5-0.1-0.9-0.4-1.3s-0.6-0.7-1.1-1.1s-1.1-0.6-1.7-0.8
		s-1.4-0.4-2.1-0.6s-1.6-0.3-2.4-0.4s-1.7-0.1-2.6-0.1c-1.1,0-2.2,0.1-3.3,0.2s-2.1,0.3-3,0.6s-1.8,0.6-2.5,0.9
		S156.9,127.5,156.6,128z"/>
	<path fill="#DB198D" d="M198.8,147.1c-0.3,0.4-0.6,0.8-1.1,1.3s-1,1-1.5,1.4s-1.2,0.8-1.8,1.2s-1.3,0.5-1.9,0.5
		c-0.8,0-1.4-0.2-1.9-0.7s-1-1.2-1.3-2.2c-0.3,0.3-0.6,0.7-1,1s-0.9,0.6-1.3,0.9s-1,0.5-1.5,0.7s-1.1,0.3-1.6,0.3
		c-0.6,0-1.1-0.1-1.6-0.3s-1-0.6-1.4-1s-0.7-0.9-1-1.6s-0.4-1.3-0.4-2.1c0-0.9,0.1-1.8,0.4-2.7s0.6-1.8,1-2.7s0.9-1.7,1.5-2.5
		s1.2-1.5,1.9-2.1s1.4-1.1,2.2-1.4s1.6-0.5,2.4-0.5c0.3,0,0.5,0.1,0.6,0.2s0.3,0.2,0.4,0.4s0.2,0.3,0.3,0.4s0.2,0.2,0.4,0.3
		s0.3,0.1,0.4,0.1s0.3,0,0.4,0c0.1,0,0.3,0,0.4,0s0.3,0,0.4,0c0.2,0,0.3,0,0.5,0.1s0.3,0.1,0.4,0.2s0.2,0.3,0.3,0.5s0.1,0.5,0.1,0.9
		c0,0.6-0.1,1.2-0.2,1.9s-0.2,1.4-0.4,2.1s-0.3,1.4-0.4,2.2s-0.2,1.4-0.2,2c0,0.6,0,1,0.1,1.3s0.3,0.5,0.6,0.5
		c0.2,0,0.5-0.1,0.8-0.2s0.5-0.3,0.8-0.5s0.6-0.4,0.8-0.7s0.5-0.5,0.8-0.8c0.6-0.6,1.2-1.3,1.7-2.1L198.8,147.1z M183.8,145.7
		c0,0.3,0,0.6,0.1,0.9s0.1,0.5,0.2,0.7s0.2,0.4,0.4,0.5s0.4,0.2,0.7,0.2c0.4,0,0.8-0.2,1.2-0.6s0.7-0.8,0.9-1.4s0.5-1.1,0.6-1.6
		s0.3-1,0.3-1.4l1.1-5.2c-0.5,0-0.9,0.1-1.4,0.4s-0.9,0.6-1.3,1s-0.8,0.9-1.1,1.4s-0.6,1.1-0.9,1.7s-0.4,1.2-0.6,1.7
		S183.8,145.2,183.8,145.7z"/>
	<path fill="#DB198D" d="M196.8,147.7c0-0.5,0-1.1,0.1-1.8s0.1-1.4,0.2-2.2s0.2-1.5,0.4-2.3s0.3-1.5,0.4-2.3s0.3-1.4,0.5-2
		s0.3-1.1,0.5-1.5c0.1-0.3,0.2-0.5,0.3-0.6s0.2-0.3,0.3-0.4s0.3-0.1,0.5-0.2s0.4,0,0.7,0c0.3,0,0.5,0,0.7,0s0.3,0.1,0.4,0.2
		s0.1,0.3,0.1,0.5s0,0.5,0,0.9c0,0.4,0,1,0,1.6s0,1.2,0,1.8h0.2c0.2-0.5,0.5-1,0.8-1.6s0.6-1.1,1-1.6s0.8-0.9,1.3-1.3
		s1.1-0.5,1.7-0.5c0.2,0,0.4,0,0.7,0.1s0.4,0.2,0.6,0.3s0.3,0.3,0.4,0.5s0.1,0.4,0.1,0.7c0,0.2,0,0.5-0.1,0.8s-0.1,0.7-0.2,1.1
		s-0.1,0.8-0.2,1.1s-0.1,0.7-0.1,0.9c0,0.4,0,0.8,0.1,1.1s0.2,0.5,0.3,0.7s0.3,0.3,0.5,0.4s0.3,0.1,0.5,0.1c0.5,0,1.1-0.1,1.6-0.4
		s1.1-0.5,1.5-0.8c0.6-0.3,1.1-0.7,1.6-1.2l-0.3,4.1c-0.3,0.2-0.7,0.4-1,0.7s-0.8,0.5-1.2,0.7s-0.9,0.4-1.4,0.5s-1,0.2-1.5,0.2
		c-0.9,0-1.6-0.2-2.1-0.5s-1-0.8-1.3-1.4s-0.6-1.2-0.7-2s-0.3-1.5-0.4-2.2h-0.3L201,149c-0.2,0.5-0.3,0.8-0.5,1.1s-0.3,0.5-0.4,0.7
		s-0.3,0.3-0.5,0.4s-0.4,0.1-0.6,0.1c-0.5,0-0.9-0.1-1.2-0.3s-0.5-0.5-0.7-0.8s-0.3-0.7-0.3-1.2S196.8,148.2,196.8,147.7z"/>
</g>
<g>
	<path fill="#DB1A8E" d="M9.9,162.4l-0.1,0.6H6.3L5,173.3H4.2l1.3-10.2H2l0.1-0.6H9.9z"/>
	<path fill="#DB1A8E" d="M18,173.3h-0.8l0.6-5.2h-6.2l-0.6,5.2h-0.8l1.3-10.9h0.8l-0.6,5.1h6.2l0.6-5.1h0.8L18,173.3z"/>
	<path fill="#DB1A8E" d="M28.2,163.1H23l-0.5,4.4h4.4l-0.1,0.6h-4.4l-0.6,4.6h5.3l-0.1,0.6h-6l1.3-10.9h6L28.2,163.1z"/>
	<path fill="#DB1A8E" d="M40.8,163.1h-5.2l-0.6,4.6h4.6l-0.1,0.6H35l-0.6,5h-0.8l1.3-10.9h6L40.8,163.1z"/>
	<path fill="#DB1A8E" d="M42.7,173.3h-0.8l1.3-10.9H44L42.7,173.3z"/>
	<path fill="#DB1A8E" d="M47.8,162.5c0,0,0.1,0.1,0.1,0.1l5.3,9.5c0-0.1,0-0.1,0-0.2s0-0.1,0-0.2l1.1-9.2H55l-1.3,10.9h-0.4
		c-0.1,0-0.2-0.1-0.3-0.2l-5.3-9.5l0,0.3l-1.1,9.3h-0.7l1.3-10.9h0.4C47.7,162.4,47.7,162.4,47.8,162.5z"/>
	<path fill="#DB1A8E" d="M63.9,163.1h-5.2l-0.5,4.4h4.4l-0.1,0.6H58l-0.6,4.6h5.3l-0.1,0.6h-6l1.3-10.9h6L63.9,163.1z"/>
	<path fill="#DB1A8E" d="M71,163.8c-0.1,0.1-0.1,0.1-0.2,0.1c-0.1,0-0.1,0-0.2-0.1c-0.1-0.1-0.2-0.2-0.4-0.3
		c-0.2-0.1-0.3-0.2-0.6-0.3c-0.2-0.1-0.5-0.1-0.9-0.1c-0.4,0-0.7,0.1-1,0.2c-0.3,0.1-0.6,0.3-0.8,0.5c-0.2,0.2-0.4,0.5-0.5,0.8
		c-0.1,0.3-0.2,0.6-0.2,0.9c0,0.3,0.1,0.6,0.2,0.8c0.1,0.2,0.3,0.4,0.5,0.5c0.2,0.2,0.4,0.3,0.7,0.4c0.3,0.1,0.5,0.2,0.8,0.3
		c0.3,0.1,0.6,0.2,0.8,0.3c0.3,0.1,0.5,0.3,0.7,0.5c0.2,0.2,0.4,0.4,0.5,0.7c0.1,0.3,0.2,0.6,0.2,0.9c0,0.5-0.1,1-0.3,1.4
		c-0.2,0.4-0.4,0.8-0.7,1.2c-0.3,0.3-0.7,0.6-1.2,0.8c-0.5,0.2-1,0.3-1.5,0.3c-0.7,0-1.2-0.1-1.7-0.4c-0.5-0.3-0.8-0.6-1.1-1
		l0.3-0.3c0.1-0.1,0.1-0.1,0.2-0.1c0,0,0.1,0,0.2,0.1s0.1,0.1,0.2,0.2s0.2,0.2,0.3,0.3c0.1,0.1,0.3,0.2,0.4,0.3
		c0.2,0.1,0.4,0.2,0.6,0.2c0.2,0.1,0.5,0.1,0.8,0.1c0.4,0,0.8-0.1,1.2-0.2c0.3-0.1,0.6-0.3,0.9-0.6c0.2-0.3,0.4-0.6,0.6-0.9
		c0.1-0.3,0.2-0.7,0.2-1.1c0-0.3-0.1-0.6-0.2-0.8c-0.1-0.2-0.3-0.4-0.5-0.5c-0.2-0.1-0.4-0.3-0.7-0.4s-0.5-0.2-0.8-0.3
		s-0.5-0.2-0.8-0.3c-0.3-0.1-0.5-0.3-0.7-0.5c-0.2-0.2-0.4-0.4-0.5-0.7c-0.1-0.3-0.2-0.6-0.2-1c0-0.4,0.1-0.8,0.2-1.2
		c0.1-0.4,0.4-0.7,0.6-1c0.3-0.3,0.6-0.5,1-0.7s0.9-0.3,1.4-0.3c0.5,0,1,0.1,1.4,0.3c0.4,0.2,0.7,0.5,1,0.8L71,163.8z"/>
	<path fill="#DB1A8E" d="M80.3,162.4l-0.1,0.6h-3.5l-1.3,10.2h-0.8l1.3-10.2h-3.5l0.1-0.6H80.3z"/>
	<path fill="#DB1A8E" d="M86,173.3h-0.8l1.3-10.9h0.8L86,173.3z"/>
	<path fill="#DB1A8E" d="M91,162.5c0,0,0.1,0.1,0.1,0.1l5.3,9.5c0-0.1,0-0.1,0-0.2s0-0.1,0-0.2l1.1-9.2h0.7l-1.3,10.9h-0.4
		c-0.1,0-0.2-0.1-0.3-0.2l-5.3-9.5l0,0.3l-1.1,9.3h-0.7l1.3-10.9h0.4C90.9,162.4,91,162.4,91,162.5z"/>
	<path fill="#DB1A8E" d="M109.4,170.4c0,0.1,0,0.1,0,0.2c0.1-0.1,0.1-0.2,0.2-0.4l4.9-7.7c0-0.1,0.1-0.1,0.1-0.1c0,0,0.1,0,0.2,0
		h0.5l-1.3,10.9h-0.7l1.1-9.3c0-0.1,0-0.1,0-0.2c0-0.1,0-0.1,0-0.2l-4.9,7.6c-0.1,0.1-0.2,0.2-0.3,0.2h-0.1c-0.1,0-0.2-0.1-0.3-0.2
		l-3.1-7.6c0,0.2,0,0.3,0,0.4l-1.1,9.3h-0.7l1.3-10.9h0.5c0.1,0,0.1,0,0.2,0c0,0,0.1,0.1,0.1,0.1l3.1,7.7
		C109.4,170.3,109.4,170.4,109.4,170.4z"/>
	<path fill="#DB1A8E" d="M126.7,167c0,1-0.1,1.8-0.4,2.6c-0.3,0.8-0.7,1.5-1.2,2s-1.1,1-1.8,1.3c-0.7,0.3-1.4,0.5-2.2,0.5
		c-0.6,0-1.2-0.1-1.7-0.3c-0.5-0.2-1-0.5-1.3-1s-0.6-0.9-0.8-1.5c-0.2-0.6-0.3-1.2-0.3-1.9c0-1,0.1-1.8,0.4-2.6
		c0.3-0.8,0.7-1.5,1.2-2c0.5-0.6,1.1-1,1.8-1.3s1.4-0.5,2.2-0.5c0.6,0,1.2,0.1,1.7,0.3s1,0.5,1.3,1c0.4,0.4,0.6,0.9,0.8,1.5
		S126.7,166.3,126.7,167z M125.9,167.1c0-0.6-0.1-1.2-0.2-1.7c-0.2-0.5-0.4-0.9-0.7-1.3c-0.3-0.4-0.7-0.6-1.1-0.8s-0.9-0.3-1.4-0.3
		c-0.7,0-1.3,0.1-1.9,0.4c-0.6,0.3-1.1,0.6-1.5,1.1c-0.4,0.5-0.7,1.1-1,1.8s-0.4,1.5-0.4,2.4c0,0.6,0.1,1.2,0.2,1.7
		c0.2,0.5,0.4,0.9,0.7,1.3c0.3,0.4,0.7,0.6,1.1,0.8c0.4,0.2,0.9,0.3,1.4,0.3c0.7,0,1.3-0.1,1.9-0.4c0.6-0.3,1.1-0.6,1.5-1.1
		s0.7-1.1,1-1.8C125.8,168.7,125.9,168,125.9,167.1z"/>
	<path fill="#DB1A8E" d="M128.3,173.3l1.3-10.9h2.9c0.5,0,1,0.1,1.4,0.2c0.4,0.1,0.7,0.3,0.9,0.5c0.3,0.2,0.4,0.5,0.6,0.7
		c0.1,0.3,0.2,0.6,0.2,1c0,0.3-0.1,0.7-0.2,1c-0.1,0.3-0.3,0.6-0.5,0.9c-0.2,0.3-0.5,0.5-0.8,0.7s-0.6,0.3-1,0.4
		c0.7,0.1,1.3,0.4,1.6,0.8c0.4,0.4,0.6,0.9,0.6,1.5c0,0.5-0.1,1-0.3,1.4s-0.4,0.8-0.7,1c-0.3,0.3-0.7,0.5-1.2,0.7
		c-0.5,0.2-1,0.2-1.6,0.2H128.3z M129.7,168.1l-0.6,4.6h2.5c1,0,1.7-0.2,2.2-0.7c0.5-0.5,0.8-1.1,0.8-2c0-0.3-0.1-0.6-0.2-0.8
		c-0.1-0.2-0.3-0.4-0.5-0.6c-0.2-0.2-0.5-0.3-0.7-0.4c-0.3-0.1-0.6-0.1-1-0.1H129.7z M129.8,167.5h2.1c0.5,0,0.9-0.1,1.3-0.2
		c0.4-0.1,0.7-0.3,0.9-0.6c0.2-0.2,0.4-0.5,0.5-0.8c0.1-0.3,0.2-0.6,0.2-1c0-0.6-0.2-1.1-0.6-1.4c-0.4-0.3-1-0.5-1.8-0.5h-2.1
		L129.8,167.5z"/>
	<path fill="#DB1A8E" d="M138.4,173.3h-0.8l1.3-10.9h0.8L138.4,173.3z"/>
	<path fill="#DB1A8E" d="M142.4,172.7h4.7l-0.1,0.7h-5.5l1.3-10.9h0.8L142.4,172.7z"/>
	<path fill="#DB1A8E" d="M156.1,163.1h-5.2l-0.5,4.4h4.4l-0.1,0.6h-4.4l-0.6,4.6h5.3l-0.1,0.6h-6l1.3-10.9h6L156.1,163.1z"/>
	<path fill="#DB1A8E" d="M161.4,173.3l1.3-10.9h2.9c0.5,0,1,0.1,1.4,0.2c0.4,0.1,0.7,0.3,0.9,0.5c0.3,0.2,0.4,0.5,0.6,0.7
		c0.1,0.3,0.2,0.6,0.2,1c0,0.3-0.1,0.7-0.2,1c-0.1,0.3-0.3,0.6-0.5,0.9c-0.2,0.3-0.5,0.5-0.8,0.7s-0.6,0.3-1,0.4
		c0.7,0.1,1.3,0.4,1.6,0.8c0.4,0.4,0.6,0.9,0.6,1.5c0,0.5-0.1,1-0.3,1.4s-0.4,0.8-0.7,1c-0.3,0.3-0.7,0.5-1.2,0.7
		c-0.5,0.2-1,0.2-1.6,0.2H161.4z M162.9,168.1l-0.6,4.6h2.5c1,0,1.7-0.2,2.2-0.7c0.5-0.5,0.8-1.1,0.8-2c0-0.3-0.1-0.6-0.2-0.8
		c-0.1-0.2-0.3-0.4-0.5-0.6c-0.2-0.2-0.5-0.3-0.7-0.4c-0.3-0.1-0.6-0.1-1-0.1H162.9z M162.9,167.5h2.1c0.5,0,0.9-0.1,1.3-0.2
		c0.4-0.1,0.7-0.3,0.9-0.6c0.2-0.2,0.4-0.5,0.5-0.8c0.1-0.3,0.2-0.6,0.2-1c0-0.6-0.2-1.1-0.6-1.4c-0.4-0.3-1-0.5-1.8-0.5h-2.1
		L162.9,167.5z"/>
	<path fill="#DB1A8E" d="M178.1,173.3h-0.6c-0.1,0-0.1,0-0.2-0.1c0,0-0.1-0.1-0.1-0.1l-0.8-3.2h-4.9l-1.6,3.2c0,0.1-0.1,0.1-0.1,0.1
		c-0.1,0-0.1,0.1-0.2,0.1h-0.6l5.4-10.9h0.8L178.1,173.3z M171.8,169.4h4.5l-1.3-5.5c0-0.1,0-0.2-0.1-0.3c0-0.1,0-0.2-0.1-0.3
		c0,0,0,0.1-0.1,0.1c0,0.1-0.1,0.1-0.1,0.2c0,0.1-0.1,0.1-0.1,0.2c0,0.1,0,0.1-0.1,0.1L171.8,169.4z"/>
	<path fill="#DB1A8E" d="M181.2,168.4l-0.6,4.9h-0.8l1.3-10.9h2.6c1.1,0,1.8,0.2,2.4,0.6c0.5,0.4,0.8,1,0.8,1.8
		c0,0.5-0.1,0.9-0.2,1.3c-0.2,0.4-0.4,0.7-0.7,1c-0.3,0.3-0.6,0.5-1,0.7c-0.4,0.2-0.8,0.3-1.3,0.4c0.1,0.1,0.2,0.2,0.3,0.3l2.8,4.7
		h-0.7c-0.2,0-0.3-0.1-0.3-0.2l-2.6-4.4c-0.1-0.1-0.2-0.2-0.2-0.2c-0.1,0-0.2-0.1-0.4-0.1H181.2z M181.8,163l-0.6,4.8h1.7
		c0.5,0,0.9-0.1,1.3-0.2c0.4-0.1,0.7-0.3,1-0.6s0.5-0.5,0.6-0.9c0.1-0.3,0.2-0.7,0.2-1.2c0-0.7-0.2-1.1-0.6-1.5
		c-0.4-0.3-1-0.5-1.8-0.5H181.8z"/>
	<path fill="#DB1A8E" d="M200.6,173.3h-0.8l0.6-5.2h-6.2l-0.6,5.2h-0.8l1.3-10.9h0.8l-0.6,5.1h6.2l0.6-5.1h0.8L200.6,173.3z"/>
	<path fill="#DB1A8E" d="M204.6,173.3h-0.8l1.3-10.9h0.8L204.6,173.3z"/>
	<path fill="#DB1A8E" d="M209.3,168.4l-0.6,4.9H208l1.3-10.9h2.6c1.1,0,1.8,0.2,2.4,0.6c0.5,0.4,0.8,1,0.8,1.8
		c0,0.5-0.1,0.9-0.2,1.3c-0.2,0.4-0.4,0.7-0.7,1c-0.3,0.3-0.6,0.5-1,0.7c-0.4,0.2-0.8,0.3-1.3,0.4c0.1,0.1,0.2,0.2,0.3,0.3l2.8,4.7
		h-0.7c-0.2,0-0.3-0.1-0.3-0.2l-2.6-4.4c-0.1-0.1-0.2-0.2-0.2-0.2c-0.1,0-0.2-0.1-0.4-0.1H209.3z M210,163l-0.6,4.8h1.7
		c0.5,0,0.9-0.1,1.3-0.2c0.4-0.1,0.7-0.3,1-0.6s0.5-0.5,0.6-0.9c0.1-0.3,0.2-0.7,0.2-1.2c0-0.7-0.2-1.1-0.6-1.5
		c-0.4-0.3-1-0.5-1.8-0.5H210z"/>
	<path fill="#DB1A8E" d="M224,163.1h-5.2l-0.5,4.4h4.4l-0.1,0.6h-4.4l-0.6,4.6h5.3l-0.1,0.6h-6l1.3-10.9h6L224,163.1z"/>
</g>
</svg>
